<svg width="132" height="37" viewBox="0 0 132 37" fill="none" xmlns="http://www.w3.org/2000/svg">
<rect x="2" y="2" width="128" height="32.6809" fill="#8B5CF6" fill-opacity="0.4" stroke="black" stroke-width="2.7234"/>
<path d="M14.3534 12.8833V20.1869C14.3482 21.0999 13.9459 21.5796 13.2135 21.5796C12.512 21.5796 12.0839 21.1309 12.0581 20.3107H9.51519C9.50488 22.5854 11.0935 23.5912 13.069 23.5912C15.3076 23.5912 16.8653 22.245 16.8704 20.1869V12.8833H14.3534ZM20.7583 23.4468L21.4546 21.2289H25.1013L25.7976 23.4468H28.5416L24.9775 12.8833H21.5784L18.0142 23.4468H20.7583ZM22.0632 19.2895L23.2341 15.5448H23.3166L24.4926 19.2895H22.0632ZM29.679 23.4468H32.2321V19.831H33.5423L35.4713 23.4468H38.2566L36.0645 19.4236C37.2251 18.8975 37.8956 17.8607 37.8956 16.401C37.8956 14.2295 36.4153 12.8833 34.0426 12.8833H29.679V23.4468ZM32.2321 17.8194V14.9413H33.4907C34.6358 14.9413 35.2496 15.421 35.2496 16.401C35.2496 17.381 34.6358 17.8194 33.4907 17.8194H32.2321ZM41.3824 12.8833H38.5249L42.089 23.4468H45.4881L49.0523 12.8833H46.1948L43.8324 20.6202H43.7447L41.3824 12.8833ZM52.7428 12.8833H50.1896V23.4468H52.7428V12.8833ZM60.0555 16.0503H62.5004C62.4797 14.0748 60.9066 12.7388 58.4514 12.7388C56.0374 12.7388 54.2992 14.0541 54.3147 16.0193C54.3095 17.6234 55.434 18.5261 57.2599 18.9439L58.3637 19.2018C59.5242 19.47 60.0452 19.7846 60.0555 20.3778C60.0452 21.0225 59.4417 21.4713 58.4153 21.4713C57.2857 21.4713 56.5429 20.9452 56.4862 19.929H54.0413C54.0723 22.3997 55.7899 23.5809 58.4462 23.5809C61.0768 23.5809 62.6345 22.3894 62.6448 20.3829C62.6345 18.6963 61.4946 17.6647 59.4107 17.2056L58.5029 16.9993C57.5436 16.793 56.9349 16.4732 56.9556 15.8439C56.9607 15.2662 57.4559 14.8485 58.4462 14.8485C59.4417 14.8485 59.9884 15.2972 60.0555 16.0503Z" fill="black"/>
<path d="M74.5158 23.4468H81.4636V21.3733H77.069V12.8833H74.5158V23.4468ZM82.7853 23.4468H90.1509V21.3733H85.3385V19.2018H89.7743V17.1231H85.3385V14.9568H90.1509V12.8833H82.7853V23.4468ZM94.0348 23.4468L94.7311 21.2289H98.3778L99.0741 23.4468H101.818L98.254 12.8833H94.8549L91.2908 23.4468H94.0348ZM95.3398 19.2895L96.5106 15.5448H96.5932L97.7692 19.2895H95.3398ZM102.956 23.4468H105.509V19.831H106.819L108.748 23.4468H111.533L109.341 19.4236C110.502 18.8975 111.172 17.8607 111.172 16.401C111.172 14.2295 109.692 12.8833 107.319 12.8833H102.956V23.4468ZM105.509 17.8194V14.9413H106.767C107.912 14.9413 108.526 15.421 108.526 16.401C108.526 17.381 107.912 17.8194 106.767 17.8194H105.509ZM121.563 12.8833H119.015V18.9697H118.927L114.77 12.8833H112.573V23.4468H115.126V17.3501H115.193L119.397 23.4468H121.563V12.8833Z" fill="black"/>
<path d="M68.6719 21.5074C69.9253 21.5074 70.9414 20.4913 70.9414 19.2379C70.9414 17.9845 69.9253 16.9684 68.6719 16.9684C67.4185 16.9684 66.4024 17.9845 66.4024 19.2379C66.4024 20.4913 67.4185 21.5074 68.6719 21.5074Z" fill="black"/>
</svg>
